# xmcd CD database file
#
# Track frame offsets:
#	150
#	27557
#	49598
#	71201
#	95174
#	115473
#	136664
#	145815
#	154783
#	180010
#	205244
#	228517
#	253376
#	282408
#	321075
#
# Disc length: 4714 seconds
#
# Revision: 0
# Processed by: cddbd v1.5.2PL0 Copyright (c) Steve Scherf et al.
# Submitted via: CDex 1.70beta3
#
DISCID=e012680f
DTITLE=Cassandra Wilson - Blue Light Til Dawn
DYEAR=1993
DGENRE=Jazz
TTITLE0=You Don't Know What Love is
TTITLE1=Come On in My Kitchen
TTITLE2=Tell Me You'll Wait for Me
TTITLE3=Children of the Night
TTITLE4=Hellhound on My Trail
TTITLE5=Black Crow
TTITLE6=Sankofa
TTITLE7=Estrellas
TTITLE8=Redbone
TTITLE9=Tupelo Honey - Angel
TTITLE10=Blue Light 'Til Dawn
TTITLE11=I Can't Stand the Rain
TTITLE12=Black Crow (Live)
TTITLE13=Skylark (Live)
TTITLE14=Tupelo Honey (Live)
EXTD=YEAR: 1993
EXTT0=
EXTT1=
EXTT2=
EXTT3=
EXTT4=
EXTT5=
EXTT6=
EXTT7=
EXTT8=
EXTT9=
EXTT10=
EXTT11=
EXTT12=
EXTT13=
EXTT14=
PLAYORDER=
